<svg width="15" height="15" viewBox="0 0 75 75" fill="none" xmlns="http://www.w3.org/2000/svg">
<g clip-path="url(#clip0_455_323)">
<path d="M36.2578 54.5625C36.3369 54.6408 36.4232 54.7114 36.5156 54.7734L36.6562 54.8496C36.7618 54.9174 36.879 54.965 37.0019 54.9902L37.1484 55.0312C37.3728 55.0755 37.6037 55.0755 37.8281 55.0312L37.9805 54.9844L38.1562 54.9316C38.2166 54.9037 38.2752 54.8724 38.332 54.8379L38.4551 54.7676C38.5521 54.7025 38.6424 54.6279 38.7246 54.5449L54.4922 38.7949C54.6889 38.6419 54.8507 38.4488 54.9671 38.2284C55.0835 38.008 55.1516 37.7654 55.1671 37.5167C55.1825 37.2679 55.1449 37.0188 55.0568 36.7857C54.9686 36.5526 54.8318 36.3409 54.6556 36.1647C54.4794 35.9885 54.2677 35.8517 54.0346 35.7635C53.8015 35.6754 53.5524 35.6378 53.3036 35.6532C53.0549 35.6687 52.8123 35.7368 52.5919 35.8532C52.3715 35.9696 52.1784 36.1314 52.0254 36.3281L39.2578 49.0781V1.75781C39.2578 1.29161 39.0726 0.844505 38.7429 0.514851C38.4133 0.185198 37.9662 0 37.5 0C37.0338 0 36.5867 0.185198 36.257 0.514851C35.9274 0.844505 35.7422 1.29161 35.7422 1.75781V49.0781L22.9746 36.3281C22.6364 36.065 22.2137 35.9344 21.7861 35.961C21.3584 35.9876 20.9551 36.1694 20.6521 36.4724C20.3491 36.7755 20.1672 37.1787 20.1407 37.6064C20.1141 38.0341 20.2446 38.4567 20.5078 38.7949L36.2578 54.5625Z" fill="white"/>
<path d="M73.2422 51.5625C72.776 51.5625 72.3289 51.7477 71.9992 52.0774C71.6696 52.407 71.4844 52.8541 71.4844 53.3203V66.2109C71.4844 67.6095 70.9288 68.9509 69.9398 69.9398C68.9509 70.9288 67.6095 71.4844 66.2109 71.4844H8.78906C7.39046 71.4844 6.04914 70.9288 5.06018 69.9398C4.07122 68.9509 3.51563 67.6095 3.51562 66.2109V53.3203C3.51562 52.8541 3.33043 52.407 3.00077 52.0774C2.67112 51.7477 2.22401 51.5625 1.75781 51.5625C1.29161 51.5625 0.844505 51.7477 0.514851 52.0774C0.185198 52.407 0 52.8541 0 53.3203L0 66.2109C0 68.5419 0.925988 70.7775 2.57426 72.4257C4.22253 74.074 6.45806 75 8.78906 75H66.2109C68.5419 75 70.7775 74.074 72.4257 72.4257C74.074 70.7775 75 68.5419 75 66.2109V53.3203C75 52.8541 74.8148 52.407 74.4851 52.0774C74.1555 51.7477 73.7084 51.5625 73.2422 51.5625Z" fill="white"/>
</g>
<defs>
<clipPath id="clip0_455_323">
<rect width="75" height="75" fill="white"/>
</clipPath>
</defs>
</svg>
