<svg width="20" height="20" viewBox="0 0 75 75" fill="none" xmlns="http://www.w3.org/2000/svg">
<path d="M65.625 9.375H9.375C4.19766 9.375 0 13.5727 0 18.75V56.25C0 61.4273 4.19766 65.625 9.375 65.625H65.625C70.8023 65.625 75 61.4273 75 56.25V18.75C75 13.5727 70.8023 9.375 65.625 9.375ZM50.1938 34.3917L70.0378 17.3858C70.1752 17.8252 70.3125 18.2647 70.3125 18.75V56.25C70.3125 56.575 70.1889 56.8635 70.1249 57.1701L50.1938 34.3917ZM65.625 14.0625C65.9363 14.0625 66.2109 14.1816 66.5039 14.2411L37.5 39.1022L8.49609 14.2411C8.78906 14.1816 9.06372 14.0625 9.375 14.0625H65.625ZM4.87295 57.1655C4.80879 56.8588 4.6875 56.575 4.6875 56.25V18.75C4.6875 18.2647 4.8271 17.8252 4.9645 17.3858L24.8017 34.3872L4.87295 57.1655ZM9.375 60.9375C8.90127 60.9375 8.4709 60.8001 8.03833 60.6674L28.363 37.4404L35.9757 43.9635C36.4128 44.3436 36.9576 44.5312 37.5 44.5312C38.0424 44.5312 38.5872 44.3436 39.0243 43.9636L46.637 37.4405L66.9617 60.6675C66.5314 60.8001 66.1011 60.9375 65.625 60.9375H9.375Z" fill="white"/>
</svg>
