<svg width="20" height="20" viewBox="0 0 66 75" fill="none" xmlns="http://www.w3.org/2000/svg">
<g clip-path="url(#clip0_455_284)">
<path d="M61.5729 19.5941C58.6219 13.8486 54.6192 9.29984 49.5636 5.94685C44.5072 2.59369 38.9871 0.917542 32.9995 0.917542C27.0126 0.917542 21.4907 2.59421 16.4354 5.94685C11.3793 9.29967 7.37673 13.8486 4.4258 19.5941C1.47532 25.3395 0 31.6135 0 38.4159C0 46.5872 2.09792 53.935 6.29481 60.4612C10.4912 66.988 15.9124 71.5042 22.5579 74.0105C23.3314 74.1737 23.9041 74.0589 24.2764 73.6692C24.6489 73.2789 24.8349 72.7901 24.8349 72.2049C24.8349 72.1072 24.8275 71.2287 24.8132 69.5683C24.7985 67.9079 24.7916 66.4594 24.7916 65.2234L23.8032 65.4177C23.1731 65.5489 22.3782 65.6044 21.4185 65.5887C20.4592 65.5735 19.4634 65.4592 18.4323 65.2468C17.4008 65.0363 16.4414 64.5481 15.5533 63.7831C14.6657 63.0181 14.0356 62.0168 13.6631 60.7807L13.2334 59.6571C12.947 58.9091 12.4962 58.0781 11.8802 57.1672C11.2642 56.2555 10.6413 55.6375 10.0112 55.312L9.71032 55.0673C9.50986 54.9047 9.32385 54.7085 9.15183 54.4809C8.97996 54.2533 8.85129 54.0255 8.76536 53.7973C8.67927 53.569 8.75061 53.3817 8.98011 53.2348C9.20962 53.0879 9.62439 53.0166 10.2262 53.0166L11.0853 53.1625C11.6582 53.293 12.3669 53.6827 13.2122 54.3342C14.0571 54.985 14.7516 55.8312 15.296 56.8724C15.9552 58.2074 16.7493 59.2246 17.6808 59.9246C18.6114 60.6246 19.5498 60.9739 20.4949 60.9739C21.44 60.9739 22.2563 60.8925 22.9441 60.7306C23.6311 60.5678 24.2757 60.323 24.8775 59.9978C25.1353 57.8159 25.8372 56.1398 26.9826 54.9681C25.35 54.7732 23.8823 54.4795 22.5785 54.0891C21.2755 53.6981 19.929 53.0637 18.5399 52.1839C17.1501 51.3054 15.9972 50.2145 15.0808 48.913C14.1643 47.6109 13.4121 45.9014 12.8253 43.7861C12.2382 41.6699 11.9446 39.2288 11.9446 36.462C11.9446 32.5226 13.0763 29.1703 15.3393 26.4032C14.2792 23.4415 14.3793 20.1214 15.6399 16.4431C16.4706 16.1498 17.7026 16.3699 19.3352 17.102C20.968 17.8345 22.1636 18.462 22.923 18.9822C23.6824 19.5023 24.2909 19.943 24.7493 20.3004C27.4138 19.4544 30.1635 19.0313 32.9992 19.0313C35.8348 19.0313 38.5851 19.4544 41.2498 20.3004L42.8826 19.1291C43.9991 18.3476 45.3176 17.6314 46.8349 16.9803C48.3531 16.3296 49.514 16.1503 50.3165 16.4436C51.605 20.1221 51.7199 23.442 50.6595 26.4037C52.9223 29.1708 54.0545 32.524 54.0545 36.4625C54.0545 39.2293 53.7598 41.6781 53.1737 43.8105C52.5867 45.9433 51.8281 47.6511 50.8974 48.9375C49.9657 50.2237 48.8054 51.3061 47.4163 52.1844C46.0269 53.0635 44.6799 53.698 43.3769 54.0889C42.0734 54.4799 40.6056 54.7737 38.973 54.969C40.462 56.4332 41.2066 58.7445 41.2066 61.9019V72.2035C41.2066 72.7888 41.3857 73.2774 41.7442 73.6678C42.1022 74.0575 42.6677 74.1723 43.4412 74.009C50.0876 71.503 55.5088 66.9866 59.705 60.4599C63.9009 53.9336 65.9996 46.5858 65.9996 38.4145C65.998 31.613 64.522 25.3395 61.5729 19.5941Z" fill="white"/>
</g>
<defs>
<clipPath id="clip0_455_284">
<rect width="66" height="75" fill="white"/>
</clipPath>
</defs>
</svg>
