<svg width="26" height="26" viewBox="0 0 26 26" fill="none" xmlns="http://www.w3.org/2000/svg">
<path d="M23.5395 0.865208C24.1929 0.270836 25.0685 0.536822 25.4994 1.46354M23.5395 0.865208C18.4054 5.55557 13.8855 11.8743 10.0773 19.677C10.1344 19.7764 10.1914 19.8764 10.2483 19.9771L25.4994 1.46354M23.5395 0.865208L23.876 1.23506C23.876 1.23505 23.876 1.23503 23.876 1.23501M23.5395 0.865208L23.8768 1.23436C23.8765 1.23458 23.8763 1.23479 23.876 1.23501M25.4994 1.46354C25.9304 2.38893 25.7533 3.62093 25.1009 4.21528L25.4994 1.46354ZM23.876 1.23501C24.083 1.04675 24.2847 1.01969 24.4571 1.07224C24.6449 1.12948 24.8754 1.30741 25.046 1.67438L25.0462 1.67462C25.2165 2.04036 25.271 2.48022 25.2115 2.89205C25.1515 3.30771 24.9833 3.64604 24.7641 3.84566L24.7637 3.84609C19.2002 8.92736 14.5883 15.7129 10.6521 24.5639L10.652 24.5641C10.4597 24.997 10.1799 25.1683 9.96331 25.185M23.876 1.23501C18.6807 5.9815 14.1056 12.4288 10.2639 20.4394L9.84947 21.3036L9.37781 20.4692C7.23463 16.678 5.02412 13.9255 2.66926 12.0623L2.66854 12.0617C2.45738 11.894 2.25768 11.8808 2.08519 11.9484C1.89638 12.0225 1.67373 12.2231 1.52445 12.6042L1.52429 12.6046C1.3751 12.9846 1.34719 13.4284 1.43081 13.8338C1.51529 14.2434 1.70236 14.565 1.92889 14.7444L1.61875 15.1364L1.929 14.7444C4.52064 16.7945 6.89636 20.0395 9.20534 24.6081C9.20537 24.6081 9.20541 24.6082 9.20544 24.6082L9.96331 25.185M9.96331 25.185C9.95566 25.1855 9.94809 25.1859 9.9406 25.1861L9.95447 25.686L10.2344 25.2717C10.1375 25.2062 10.0443 25.192 10.0047 25.1878C9.98799 25.1859 9.97364 25.1852 9.96331 25.185Z" fill="#FF597A" stroke="#FF597A"/>
</svg>
