<svg width="20" height="20" viewBox="0 0 75 75" fill="none" xmlns="http://www.w3.org/2000/svg">
<path d="M52.2583 43.938C51.46 43.5278 47.4829 41.5796 46.7432 41.3159C46.0034 41.0376 45.4614 40.9058 44.9268 41.7261C44.3848 42.5391 42.8467 44.3481 42.3633 44.8975C41.8945 45.4395 41.4185 45.5054 40.6201 45.1025C35.874 42.7295 32.7612 40.8691 29.6338 35.5005C28.8062 34.0723 30.4614 34.1748 32.0068 31.0913C32.2705 30.5493 32.1387 30.0879 31.9336 29.6777C31.7285 29.2676 30.1172 25.2979 29.4434 23.6792C28.7915 22.1045 28.1177 22.3242 27.627 22.2949C27.1582 22.2656 26.6235 22.2656 26.0815 22.2656C25.5396 22.2656 24.668 22.4707 23.9282 23.269C23.1885 24.082 21.1011 26.0376 21.1011 30.0073C21.1011 33.9771 23.9941 37.8223 24.3896 38.3643C24.7998 38.9063 30.0806 47.0508 38.1885 50.5591C43.3154 52.771 45.3223 52.9614 47.8857 52.5806C49.4458 52.3462 52.6611 50.6323 53.3276 48.7354C53.9941 46.8457 53.9941 45.2271 53.7964 44.8901C53.5986 44.5313 53.0566 44.3262 52.2583 43.938Z" fill="white"/>
<path d="M67.7637 24.7852C66.1084 20.8521 63.7353 17.3218 60.7104 14.2896C57.6855 11.2646 54.1553 8.88428 50.2148 7.23633C46.1865 5.54443 41.9092 4.6875 37.5 4.6875H37.3535C32.915 4.70947 28.6157 5.58838 24.5727 7.31689C20.6689 8.98682 17.168 11.3599 14.1724 14.3848C11.1767 17.4097 8.82567 20.9253 7.1997 24.8438C5.51513 28.9014 4.66552 33.2153 4.68749 37.6538C4.70946 42.7368 5.92528 47.7832 8.20311 52.2949V63.4277C8.20311 65.2881 9.7119 66.7969 11.5723 66.7969H22.7124C27.2241 69.0747 32.2705 70.2905 37.3535 70.3125H37.5073C41.8945 70.3125 46.1499 69.4629 50.1562 67.8003C54.0747 66.167 57.5976 63.8232 60.6152 60.8276C63.6401 57.832 66.0205 54.3311 67.6831 50.4272C69.4116 46.3843 70.2905 42.085 70.3125 37.6465C70.3345 33.186 69.4702 28.8574 67.7637 24.7852ZM56.6968 56.8652C51.5625 61.9482 44.751 64.7461 37.5 64.7461H37.3755C32.959 64.7241 28.5718 63.6255 24.6973 61.5601L24.082 61.2305H13.7695V50.918L13.4399 50.3027C11.3745 46.4282 10.2759 42.041 10.2539 37.6245C10.2246 30.3223 13.0151 23.4668 18.1348 18.3032C23.2471 13.1396 30.0806 10.2832 37.3828 10.2539H37.5073C41.1694 10.2539 44.7217 10.9644 48.0688 12.3706C51.3354 13.7402 54.2651 15.7104 56.7847 18.23C59.2969 20.7422 61.2744 23.6792 62.644 26.9458C64.0649 30.3296 64.7754 33.9185 64.7607 37.6245C64.7168 44.9194 61.853 51.7529 56.6968 56.8652Z" fill="white"/>
</svg>
